<svg xmlns="http://www.w3.org/2000/svg" viewBox="0 0 460 460" style="enable-background:new 0 0 460 460" xml:space="preserve">
  <path style="fill:#222" d="M451.92 169.42C425.331 71.79 336.056 0 230 0 102.975 0 0 102.975 0 230c0 106.057 71.79 195.331 169.421 221.92l282.499-282.5z"/>
  <path style="fill:#111" d="M460 230c0-20.969-2.822-41.276-8.08-60.58L325 42.5l-190 375 34.421 34.421C188.724 457.178 209.031 460 230 460c127.025 0 230-102.975 230-230z"/>
  <path style="fill:#1d54b" d="M229.989 87.5H180c0-24.853-20.135-45-45-45v54.608l94.99 95.522 10-52.565L229.989 87.5z"/>
  <path style="fill:#1d54b" d="M229.989 192.511c0-52.473-42.516-95.011-94.989-95.011v105.131l104.989 10s-10-20.123-10-20.12z"/>
  
  <!-- Ojo izquierdo con animaciones -->
  <g>
    <ellipse cx="177.508" cy="150.065" rx="30" ry="25" fill="#F2CB05">
      <animate attributeName="ry" values="25;0;25" dur="5s" repeatCount="indefinite"/>
    </ellipse>
    <circle cx="177.508" cy="150.065" r="17" fill="#000">
      <animate attributeName="cx" values="177.508;167.508;187.508;177.508" dur="4s" repeatCount="indefinite"/>
    </circle>
  </g>

  <path style="fill:#1d54b" d="M280 87.5h-50.011v105.13L325 97.5v-55c-24.853 0-45 20.147-45 45z"/>
  <path style="fill:#1d54b" d="M325 97.5c-52.471 0-95.008 42.535-95.011 95.006v20.125l95.011-10V97.5z"/>
  
  <!-- Ojo derecho con animaciones -->
  <g>
    <ellipse cx="282.493" cy="150.065" rx="30" ry="25" fill="#F2CB05">
      <animate attributeName="ry" values="25;0;25" dur="5s" repeatCount="indefinite"/>
    </ellipse>
    <circle cx="282.493" cy="150.065" r="17" fill="#000">
      <animate attributeName="cx" values="282.493;272.493;292.493;282.493" dur="4s" repeatCount="indefinite"/>
    </circle>
  </g>

  <path style="fill:#1d54b" d="M135 202.631V417.5c104.799 0 190-85.066 190-190v-24.869H135z"/>

  <!-- Ala (movimiento combinado) -->
  <g>
    <path style="fill:#333" d="M255.335 347.581c33.16-33.16 33.16-86.921 0-120.081-33.159-33.159-87.176-33.159-120.335 0">
      <animateTransform attributeName="transform" type="rotate" values="0,135,227.5; 20,135,227.5; 0,135,227.5" dur="4s" repeatCount="indefinite"/>
    </path>
    <path style="fill:#D9D9D9" d="M135 227.5v170c46.884 0 89.384-19.028 120.163-49.792L135 227.5z">
      <animateTransform attributeName="transform" type="rotate" values="0,135,227.5; 20,135,227.5; 0,135,227.5" dur="4s" repeatCount="indefinite"/>
    </path>
  </g>

  <!-- Ramitas debajo del búho -->
  <g>
    <path style="fill:#654321" d="M100 435c30-10 50-30 80-40s70 10 100 20c-20-10-40-30-80-30-40 0-80 20-100 10z"/>
    <path style="fill:#654321" d="M250 435c30-10 50-30 80-40s70 10 100 20c-20-10-40-30-80-30-40 0-80 20-100 10z"/>
  </g>
</svg>
