<!-- icon666.com - MILLIONS vector ICONS FREE --><svg viewBox="0 0 512 512" xmlns="http://www.w3.org/2000/svg"><path d="m512 256c0-35.699219-16.503906-67.613281-42.28125-88.527344 3.441406-33.011718-7.453125-67.25-32.699219-92.492187-25.242187-25.246094-59.480469-36.140625-92.492187-32.699219-20.914063-25.777344-52.828125-42.28125-88.527344-42.28125s-67.613281 16.503906-88.527344 42.28125c-33.011718-3.441406-67.25 7.453125-92.492187 32.699219-25.246094 25.242187-36.140625 59.480469-32.699219 92.492187-25.777344 20.914063-42.28125 52.828125-42.28125 88.527344s16.503906 67.613281 42.28125 88.527344c-3.441406 33.011718 7.453125 67.25 32.699219 92.492187 22.21875 22.21875 51.398437 33.332031 80.585937 33.328125 3.972656 0 7.949219-.214844 11.90625-.628906 20.914063 25.773438 52.824219 42.28125 88.527344 42.28125 35.699219 0 67.613281-16.503906 88.527344-42.28125 3.957031.414062 7.929687.628906 11.90625.628906 29.183594 0 58.371094-11.109375 80.585937-33.328125 25.246094-25.242187 36.140625-59.480469 32.699219-92.492187 25.777344-20.914063 42.28125-52.828125 42.28125-88.527344zm-214.542969 159.414062c-10.132812-10.132812-17.316406-22.417968-21.167969-35.816406 19.417969-3.179687 37.355469-10.832031 52.699219-21.875 6.628907 11.957032 10.421875 25.699219 10.421875 40.3125 0 13.546875-3.269531 26.335938-9.023437 37.65625-12.273438-4.023437-23.53125-10.878906-32.929688-20.277344zm-115.84375 20.277344c-5.753906-11.320312-9.023437-24.109375-9.023437-37.65625 0-14.613281 3.792968-28.355468 10.421875-40.3125 15.347656 11.042969 33.28125 18.695313 52.699219 21.875-3.851563 13.398438-11.035157 25.683594-21.167969 35.816406-9.398438 9.398438-20.652344 16.253907-32.929688 20.277344zm32.929688-339.105468c10.132812 10.132812 17.316406 22.417968 21.167969 35.816406-19.417969 3.179687-37.355469 10.832031-52.699219 21.875-6.628907-11.957032-10.421875-25.699219-10.421875-40.3125 0-13.546875 3.269531-26.335938 9.023437-37.65625 12.277344 4.023437 23.53125 10.878906 32.929688 20.277344zm115.84375-20.277344c5.753906 11.320312 9.023437 24.109375 9.023437 37.65625 0 14.613281-3.792968 28.355468-10.421875 40.3125-15.347656-11.042969-33.28125-18.695313-52.699219-21.875 3.851563-13.398438 11.035157-25.683594 21.167969-35.816406 9.398438-9.398438 20.65625-16.253907 32.929688-20.277344zm-74.386719 208.183594c-15.710938 0-28.492188-12.78125-28.492188-28.492188s12.78125-28.492188 28.492188-28.492188 28.492188 12.78125 28.492188 28.492188-12.78125 28.492188-28.492188 28.492188zm-93.089844-45.851563c2.457032-13.203125 7.660156-25.449219 14.992188-36.125 6.730468 8.027344 11.964844 17.335937 15.304687 27.5-9.390625 4.761719-19.632812 7.699219-30.296875 8.625zm30.296875 43.34375c-3.339843 10.164063-8.574219 19.472656-15.304687 27.5-7.332032-10.675781-12.535156-22.921875-14.992188-36.125 10.664063.925781 20.90625 3.863281 30.296875 8.625zm155.882813-8.625c-2.457032 13.203125-7.660156 25.449219-14.992188 36.125-6.730468-8.027344-11.964844-17.335937-15.304687-27.5 9.390625-4.761719 19.632812-7.699219 30.296875-8.625zm-30.296875-43.34375c3.339843-10.164063 8.574219-19.472656 15.304687-27.5 7.332032 10.675781 12.535156 22.921875 14.992188 36.125-10.664063-.925781-20.90625-3.863281-30.296875-8.625zm-36.808594-36.808594c-4.761719-9.390625-7.699219-19.632812-8.625-30.296875 13.203125 2.457032 25.449219 7.660156 36.125 14.992188-8.027344 6.730468-17.335937 11.964844-27.5 15.304687zm-51.96875 0c-10.164063-3.339843-19.472656-8.574219-27.5-15.304687 10.675781-7.332032 22.921875-12.535156 36.125-14.992188-.925781 10.664063-3.863281 20.90625-8.625 30.296875zm0 125.585938c4.761719 9.390625 7.699219 19.632812 8.625 30.296875-13.203125-2.457032-25.449219-7.660156-36.125-14.992188 8.027344-6.730468 17.335937-11.964844 27.5-15.304687zm51.96875 0c10.164063 3.339843 19.472656 8.574219 27.5 15.304687-10.675781 7.332032-22.921875 12.535156-36.125 14.992188.925781-10.664063 3.863281-20.90625 8.625-30.296875zm-149.582031-83.082031c-13.398438-3.851563-25.683594-11.035157-35.816406-21.167969-9.398438-9.398438-16.253907-20.652344-20.277344-32.929688 11.320312-5.753906 24.109375-9.023437 37.65625-9.023437 14.613281 0 28.355468 3.792968 40.3125 10.421875-11.042969 15.347656-18.695313 33.28125-21.875 52.699219zm21.875 93.277343c-11.957032 6.628907-25.699219 10.421875-40.3125 10.421875-13.546875 0-26.335938-3.265625-37.65625-9.023437 4.023437-12.277344 10.878906-23.53125 20.277344-32.929688 10.132812-10.132812 22.417968-17.316406 35.816406-21.171875 3.179687 19.421875 10.832031 37.355469 21.875 52.703125zm225.320312-52.699219c13.398438 3.851563 25.683594 11.035157 35.816406 21.167969 9.398438 9.398438 16.253907 20.65625 20.277344 32.933594-11.320312 5.753906-24.109375 9.019531-37.65625 9.019531-14.613281 0-28.355468-3.789062-40.3125-10.421875 11.042969-15.347656 18.695313-33.28125 21.875-52.699219zm-21.875-93.277343c11.957032-6.628907 25.699219-10.421875 40.3125-10.421875 13.546875 0 26.335938 3.265625 37.65625 9.023437-4.023437 12.277344-10.878906 23.53125-20.277344 32.929688-10.132812 10.132812-22.417968 17.316406-35.816406 21.167969-3.179687-19.417969-10.832031-37.351563-21.875-52.699219zm57.691406-86.425781c14.40625 14.410156 22.871094 33.164062 24.214844 53.308593-12.890625-5.070312-26.921875-7.859375-41.59375-7.859375-11.445312 0-22.496094 1.703125-32.925781 4.855469 3.152344-10.429687 4.855469-21.480469 4.855469-32.925781 0-14.671875-2.789063-28.703125-7.859375-41.59375 20.144531 1.34375 38.898437 9.808594 53.308593 24.214844zm-159.414062-66.027344c20.953125 0 40.109375 7.78125 54.777344 20.585937-12.6875 5.53125-24.566406 13.472657-34.929688 23.835938-7.984375 7.984375-14.636718 16.949219-19.847656 26.617187-5.210938-9.667968-11.863281-18.632812-19.847656-26.617187-10.363282-10.363281-22.242188-18.304688-34.929688-23.835938 14.667969-12.804687 33.824219-20.585937 54.777344-20.585937zm-159.414062 66.027344c14.410156-14.40625 33.164062-22.871094 53.308593-24.214844-5.070312 12.890625-7.859375 26.921875-7.859375 41.59375 0 11.445312 1.703125 22.496094 4.855469 32.925781-10.429687-3.152344-21.480469-4.855469-32.925781-4.855469-14.671875 0-28.703125 2.785156-41.59375 7.859375 1.34375-20.140625 9.808594-38.898437 24.214844-53.308593zm-66.027344 159.414062c0-20.953125 7.78125-40.109375 20.585937-54.777344 5.53125 12.6875 13.472657 24.566406 23.835938 34.929688 7.984375 7.984375 16.949219 14.636718 26.617187 19.847656-9.667968 5.210938-18.632812 11.863281-26.617187 19.847656-10.363281 10.363282-18.304688 22.242188-23.835938 34.929688-12.804687-14.667969-20.585937-33.824219-20.585937-54.777344zm66.027344 159.414062c-14.40625-14.410156-22.871094-33.164062-24.214844-53.308593 12.890625 5.070312 26.921875 7.859375 41.59375 7.859375 11.445312 0 22.496094-1.703125 32.925781-4.855469-3.152344 10.429687-4.855469 21.480469-4.855469 32.925781 0 14.671875 2.789063 28.703125 7.859375 41.59375-20.144531-1.34375-38.898437-9.808594-53.308593-24.214844zm159.414062 66.027344c-20.953125 0-40.113281-7.78125-54.777344-20.585937 12.6875-5.53125 24.566406-13.472657 34.925782-23.835938 7.988281-7.984375 14.636718-16.949219 19.851562-26.617187 5.210938 9.667968 11.863281 18.632812 19.847656 26.617187 10.363282 10.363281 22.242188 18.304688 34.929688 23.835938-14.667969 12.804687-33.824219 20.585937-54.777344 20.585937zm159.414062-66.027344c-14.410156 14.40625-33.164062 22.871094-53.308593 24.214844 5.070312-12.890625 7.859375-26.921875 7.859375-41.59375 0-11.445312-1.703125-22.496094-4.855469-32.925781 10.429687 3.152344 21.480469 4.855469 32.925781 4.855469 14.671875 0 28.703125-2.785156 41.59375-7.859375-1.34375 20.140625-9.808594 38.898437-24.214844 53.308593zm21.605469-139.566406c-7.984375-7.984375-16.949219-14.636718-26.617187-19.847656 9.667968-5.210938 18.632812-11.863281 26.617187-19.847656 10.363281-10.363282 18.304688-22.242188 23.835938-34.929688 12.804687 14.667969 20.585937 33.824219 20.585937 54.777344s-7.78125 40.109375-20.585937 54.777344c-5.53125-12.6875-13.472657-24.566406-23.835938-34.929688zm0 0"></path></svg>